# Blender v2.91.2 OBJ File: 'untitled.blend'
# www.blender.org
mtllib acceptdodocaedr.mtl
o Icosphere_Icosphere.001
v 0.140893 0.000003 0.433616
v 0.455934 0.000003 -0.000000
v -0.368858 0.000003 0.267990
v -0.368858 0.000003 -0.267990
v 0.140893 0.000003 -0.433616
v 0.737718 0.455941 -0.000000
v 0.227967 0.455941 0.701606
v -0.596826 0.455941 0.433616
v -0.596826 0.455941 -0.433616
v 0.227967 0.455941 -0.701606
v 0.596826 0.737728 0.433616
v -0.227967 0.737728 0.701606
v -0.737718 0.737728 -0.000000
v -0.227967 0.737728 -0.701606
v 0.596826 0.737728 -0.433616
v 0.368858 1.193666 0.267990
v -0.140893 1.193666 0.433616
v -0.455934 1.193666 0.000000
v -0.140893 1.193666 -0.433616
v 0.368858 1.193666 -0.267990
vt 0.818181 0.103334
vt 0.091856 0.103334
vt 0.272727 0.101694
vt 0.454545 0.101694
vt 0.636363 0.101694
vt 0.636363 0.208307
vt 0.727272 0.264075
vt 0.818181 0.209948
vt 0.908143 0.264075
vt 0.091856 0.208307
vt 0.181818 0.262434
vt 0.272727 0.208307
vt 0.454545 0.208307
vt 0.545454 0.264075
vt 0.363636 0.264075
vt 0.727272 0.370688
vt 0.908143 0.369048
vt 0.545454 0.370688
vt 0.181818 0.369048
vt 0.363636 0.370688
vn -0.0000 -1.0000 -0.0000
vn 0.7236 -0.4472 0.5257
vn -0.2764 -0.4472 0.8507
vn -0.8944 -0.4472 -0.0000
vn 0.7236 -0.4472 -0.5257
vn -0.2764 -0.4472 -0.8507
vn 0.2764 0.4472 0.8507
vn 0.8944 0.4472 0.0000
vn -0.7236 0.4472 0.5257
vn -0.7236 0.4472 -0.5257
vn 0.0000 1.0000 0.0000
vn 0.2764 0.4472 -0.8507
usemtl Material.001
s off
f 1/1/1 3/2/1 4/3/1 5/4/1 2/5/1
f 1/1/2 2/5/2 6/6/2 11/7/2 7/8/2
f 3/2/3 1/1/3 7/8/3 12/9/3 8/10/3
f 4/3/4 3/2/4 8/10/4 13/11/4 9/12/4
f 6/6/5 2/5/5 5/4/5 10/13/5 15/14/5
f 5/4/6 4/3/6 9/12/6 14/15/6 10/13/6
f 12/9/7 7/8/7 11/7/7 16/16/7 17/17/7
f 11/7/8 6/6/8 15/14/8 20/18/8 16/16/8
f 13/11/9 8/10/9 12/9/9 17/17/9 18/19/9
f 14/15/10 9/12/10 13/11/10 18/19/10 19/20/10
f 17/17/11 16/16/11 20/18/11 19/20/11 18/19/11
f 15/14/12 10/13/12 14/15/12 19/20/12 20/18/12
