# Blender v2.91.2 OBJ File: 'untitled1.blend'
# www.blender.org
mtllib fiveprizma.mtl
o Icosphere_Icosphere.002
v 0.723600 -0.447215 0.525720
v 0.723600 -0.447215 -0.525720
v 0.276385 0.447215 0.850640
v 0.276385 0.447215 -0.850640
v 0.403018 0.201510 0.000000
v 0.000000 1.000000 0.000000
v -0.051198 -0.834611 0.525720
v -0.051198 -0.834611 -0.525720
v -0.498413 0.059819 0.850640
v -0.498413 0.059819 -0.850640
v -0.371780 -0.185886 0.000000
v -0.774798 0.612604 0.000000
vt 0.727272 0.157461
vt 0.636363 0.314921
vt 0.545454 0.157461
vt 0.818181 0.314921
vt 0.454545 0.314921
vt 0.727272 0.472382
vt 0.545454 0.472382
vt 0.727272 0.157461
vt 0.545454 0.157461
vt 0.636363 0.314921
vt 0.818181 0.314921
vt 0.454545 0.314921
vt 0.727272 0.472382
vt 0.545454 0.472382
vn -0.8965 -0.4430 0.0000
vn -0.8951 -0.4459 -0.0044
vn -0.8951 -0.4459 0.0044
vn -0.8927 -0.4506 -0.0027
vn -0.8927 -0.4506 0.0027
vn 0.8965 0.4430 0.0000
vn 0.8951 0.4459 0.0044
vn 0.8951 0.4459 -0.0044
vn 0.8927 0.4506 0.0027
vn 0.8927 0.4506 -0.0027
vn -0.1382 0.2764 0.9511
vn -0.4472 0.8944 0.0000
vn 0.3618 -0.7236 0.5878
vn 0.3618 -0.7236 -0.5878
vn -0.1382 0.2764 -0.9511
usemtl Material.002
s off
f 1/1/1 5/2/1 2/3/1
f 1/1/2 3/4/2 5/2/2
f 2/3/3 5/2/3 4/5/3
f 3/4/4 6/6/4 5/2/4
f 5/2/5 6/7/5 4/5/5
f 7/8/6 8/9/6 11/10/6
f 7/8/7 11/10/7 9/11/7
f 8/9/8 10/12/8 11/10/8
f 9/11/9 11/10/9 12/13/9
f 11/10/10 10/12/10 12/14/10
f 2/3/11 4/5/11 10/12/11 8/9/11
f 1/1/12 2/3/12 8/9/12 7/8/12
f 4/5/13 6/7/13 12/14/13 10/12/13
f 6/6/14 3/4/14 9/11/14 12/13/14
f 3/4/15 1/1/15 7/8/15 9/11/15
