# Blender v2.91.2 OBJ File: 'untitled3.blend'
# www.blender.org
mtllib octaedr.mtl
o Cube
v 0.000246 -1.154714 0.002807
v 0.000610 1.154714 0.001208
v 0.000246 -1.154714 0.002807
v 0.000610 1.154714 0.001208
v 0.000246 -1.154714 0.002807
v 0.000610 1.154714 0.001208
v 0.000246 -1.154714 0.002807
v 0.000610 1.154714 0.001208
v -1.000000 0.000000 1.000000
v -1.000000 0.000000 -1.000000
v 1.000000 0.000000 -1.000000
v 1.000000 0.000000 1.000000
vt 0.500000 0.000000
vt 0.625000 0.000000
vt 0.625000 0.250000
vt 0.500000 0.250000
vt 0.625000 0.500000
vt 0.500000 0.500000
vt 0.625000 0.750000
vt 0.500000 0.750000
vt 0.625000 1.000000
vt 0.500000 1.000000
vt 0.125000 0.500000
vt 0.375000 0.500000
vt 0.375000 0.750000
vt 0.125000 0.750000
vt 0.875000 0.500000
vt 0.875000 0.750000
vt 0.375000 1.000000
vt 0.375000 0.250000
vt 0.375000 0.000000
vn -0.7557 0.6549 0.0000
vn 0.0000 0.6551 -0.7555
vn 0.7561 0.6544 0.0000
vn 0.0000 0.6542 0.7563
vn 0.0000 0.0000 1.0000
vn 0.0000 -0.6536 0.7568
vn 0.7560 -0.6546 0.0000
vn 0.0000 -0.6557 -0.7550
vn -0.7559 -0.6547 0.0000
usemtl Material
s off
f 9/1/1 2/2/1 4/3/1 10/4/1
f 10/4/2 4/3/2 8/5/2 11/6/2
f 11/6/3 8/5/3 6/7/3 12/8/3
f 12/8/4 6/7/4 2/9/4 9/10/4
f 3/11/5 7/12/5 5/13/5 1/14/5
f 8/5/5 4/15/5 2/16/5 6/7/5
f 5/13/6 12/8/6 9/10/6 1/17/6
f 7/12/7 11/6/7 12/8/7 5/13/7
f 3/18/8 10/4/8 11/6/8 7/12/8
f 1/19/9 9/1/9 10/4/9 3/18/9
