# Blender v2.91.2 OBJ File: 'paralelipiped.blend'
# www.blender.org
mtllib paralelepiped.mtl
o Plane_Plane.003
v -0.895047 0.000000 0.259704
v 0.500052 0.000000 0.259704
v -0.895047 0.000000 -0.259704
v 0.500052 0.000000 -0.259704
v -0.431283 0.439587 0.259704
v 0.963816 0.439587 0.259704
v -0.431283 0.439587 -0.259704
v 0.963816 0.439587 -0.259704
vt 0.000000 0.000000
vt 0.000000 1.000000
vt 1.000000 1.000000
vt 1.000000 0.000000
vt 0.000000 0.000000
vt 1.000000 0.000000
vt 1.000000 1.000000
vt 0.000000 1.000000
vn 0.0000 -1.0000 0.0000
vn 0.0000 1.0000 0.0000
vn 0.0000 0.0000 -1.0000
vn 0.0000 -0.0000 1.0000
vn 0.6879 -0.7258 0.0000
vn -0.6879 0.7258 0.0000
usemtl Material.006
s off
f 1/1/1 3/2/1 4/3/1 2/4/1
f 5/5/2 6/6/2 8/7/2 7/8/2
f 4/3/3 3/2/3 7/8/3 8/7/3
f 1/1/4 2/4/4 6/6/4 5/5/4
f 2/4/5 4/3/5 8/7/5 6/6/5
f 3/2/6 1/1/6 5/5/6 7/8/6
